<svg xmlns="http://www.w3.org/2000/svg" viewBox="0 0 512 512">
  <defs>
    <linearGradient id="bg" x1="0" y1="0" x2="1" y2="1">
      <stop offset="0%" stop-color="#1E40AF"/>
      <stop offset="100%" stop-color="#3B82F6"/>
    </linearGradient>
  </defs>
  <rect fill="url(#bg)" width="512" height="512" rx="96"/>
  <!-- Car body -->
  <g transform="translate(256,240)" fill="white">
    <ellipse cx="-70" cy="52" rx="28" ry="28" fill="rgba(255,255,255,0.3)"/>
    <ellipse cx="70" cy="52" rx="28" ry="28" fill="rgba(255,255,255,0.3)"/>
    <path d="M-130,20 Q-130,-10 -100,-10 L-60,-50 Q-40,-65 0,-65 Q40,-65 60,-50 L100,-10 Q130,-10 130,20 L130,40 Q130,55 115,55 L-115,55 Q-130,55 -130,40 Z" fill="white" opacity="0.95"/>
    <rect x="-90" y="-40" width="60" height="30" rx="4" fill="#3B82F6" opacity="0.5"/>
    <rect x="30" y="-40" width="60" height="30" rx="4" fill="#3B82F6" opacity="0.5"/>
    <circle cx="-70" cy="52" r="18" fill="white"/>
    <circle cx="-70" cy="52" r="8" fill="#1E40AF"/>
    <circle cx="70" cy="52" r="18" fill="white"/>
    <circle cx="70" cy="52" r="8" fill="#1E40AF"/>
  </g>
  <!-- Text -->
  <text x="256" y="380" text-anchor="middle" fill="white" font-family="Arial,sans-serif" font-size="64" font-weight="bold" letter-spacing="4">POPACO</text>
</svg>
